<mxfile host="app.diagrams.net" modified="2023-04-26T15:23:01.234Z" agent="Mozilla/5.0 (Windows NT 10.0; Win64; x64; rv:109.0) Gecko/20100101 Firefox/112.0" etag="1nwqYdKkVD6mfr1XpYSK" version="21.2.1" type="github">
  <diagram name="Page-1" id="3cXEH74BGKEQcWYpI7TE">
    <mxGraphModel dx="993" dy="543" grid="1" gridSize="10" guides="1" tooltips="1" connect="1" arrows="1" fold="1" page="1" pageScale="1" pageWidth="827" pageHeight="1169" math="0" shadow="0">
      <root>
        <mxCell id="0" />
        <mxCell id="1" parent="0" />
        <mxCell id="Lrqft2dla-wK3kQ4HPoh-1" value="&lt;font style=&quot;font-size: 36px;&quot;&gt;Higher vs Lower&lt;/font&gt;" style="text;html=1;align=center;verticalAlign=middle;resizable=0;points=[];autosize=1;strokeColor=none;fillColor=none;" parent="1" vertex="1">
          <mxGeometry x="274" y="30" width="280" height="60" as="geometry" />
        </mxCell>
        <mxCell id="Lrqft2dla-wK3kQ4HPoh-2" value="&lt;font style=&quot;font-size: 24px;&quot;&gt;Introduce to the game&amp;nbsp;&lt;br&gt;welcome with Ascii art&lt;/font&gt;" style="rounded=0;whiteSpace=wrap;html=1;" parent="1" vertex="1">
          <mxGeometry x="30" y="120" width="270" height="140" as="geometry" />
        </mxCell>
        <mxCell id="Lrqft2dla-wK3kQ4HPoh-3" value="&lt;font style=&quot;font-size: 24px;&quot;&gt;data = [&lt;br&gt;&amp;nbsp; &amp;nbsp; {&lt;br&gt;&amp;nbsp; &amp;nbsp; &amp;nbsp; &amp;nbsp; &#39;name&#39;: &#39;Instagram&#39;,&lt;br&gt;&amp;nbsp; &amp;nbsp; &amp;nbsp; &amp;nbsp; &#39;follower_count&#39;: 346,&lt;br&gt;&amp;nbsp; &amp;nbsp; &amp;nbsp; &amp;nbsp; &#39;description&#39;: &#39;Social media platform&#39;,&lt;br&gt;&amp;nbsp; &amp;nbsp; &amp;nbsp; &amp;nbsp; &#39;country&#39;: &#39;United States&#39;&lt;br&gt;&amp;nbsp; &amp;nbsp; }]&lt;/font&gt;" style="text;whiteSpace=wrap;html=1;" parent="1" vertex="1">
          <mxGeometry x="340" y="90" width="450" height="120" as="geometry" />
        </mxCell>
        <mxCell id="Lrqft2dla-wK3kQ4HPoh-4" value="Print a random dictinory number" style="rounded=0;whiteSpace=wrap;html=1;" parent="1" vertex="1">
          <mxGeometry x="105" y="320" width="120" height="60" as="geometry" />
        </mxCell>
        <mxCell id="Lrqft2dla-wK3kQ4HPoh-5" value="&lt;pre style=&quot;font-size: 13.3333px; margin-top: 15px; margin-bottom: 15px; text-align: start; background-color: rgb(255, 255, 255);&quot; class=&quot;fig&quot; id=&quot;taag_output_text&quot;&gt; _   _  ____  ___  _   _  ____  ____    _  _  ___    __    _____  _    _  ____  ____ &lt;br/&gt;( )_( )(_  _)/ __)( )_( )( ___)(  _ \  ( \/ )/ __)  (  )  (  _  )( \/\/ )( ___)(  _ \&lt;br/&gt; ) _ (  _)(_( (_-. ) _ (  )__)  )   /   \  / \__ \   )(__  )(_)(  )    (  )__)  )   /&lt;br/&gt;(_) (_)(____)\___/(_) (_)(____)(_)\_)    \/  (___/  (____)(_____)(__/\__)(____)(_)\_)&lt;/pre&gt;" style="text;html=1;align=center;verticalAlign=middle;resizable=0;points=[];autosize=1;strokeColor=none;fillColor=none;" parent="1" vertex="1">
          <mxGeometry x="350" y="330" width="650" height="110" as="geometry" />
        </mxCell>
        <mxCell id="Lrqft2dla-wK3kQ4HPoh-6" value="&lt;pre style=&quot;font-size: 13.3333px; font-family: monospace; margin-top: 15px; margin-bottom: 15px; color: rgb(0, 0, 0); font-style: normal; font-variant-ligatures: normal; font-variant-caps: normal; font-weight: 400; letter-spacing: normal; orphans: 2; text-align: start; text-indent: 0px; text-transform: none; widows: 2; word-spacing: 0px; -webkit-text-stroke-width: 0px; background-color: rgb(255, 255, 255); text-decoration-thickness: initial; text-decoration-style: initial; text-decoration-color: initial;&quot; class=&quot;fig&quot; id=&quot;taag_output_text&quot;&gt; _  _  ___ &#xa;( \/ )/ __)&#xa; \  / \__ \&#xa;  \/  (___/&lt;/pre&gt;" style="text;whiteSpace=wrap;html=1;" parent="1" vertex="1">
          <mxGeometry x="860" y="150" width="110" height="120" as="geometry" />
        </mxCell>
        <mxCell id="Lrqft2dla-wK3kQ4HPoh-7" value="Print another random dictinory number" style="rounded=0;whiteSpace=wrap;html=1;" parent="1" vertex="1">
          <mxGeometry x="270" y="524" width="120" height="60" as="geometry" />
        </mxCell>
        <mxCell id="Lrqft2dla-wK3kQ4HPoh-8" value="print VS" style="whiteSpace=wrap;html=1;" parent="1" vertex="1">
          <mxGeometry x="270" y="440" width="120" height="60" as="geometry" />
        </mxCell>
        <mxCell id="Lrqft2dla-wK3kQ4HPoh-9" value="Take input from player A or B" style="whiteSpace=wrap;html=1;" parent="1" vertex="1">
          <mxGeometry x="270" y="610" width="120" height="60" as="geometry" />
        </mxCell>
        <mxCell id="Lrqft2dla-wK3kQ4HPoh-10" value="somehow check if the answer is true with a funtion" style="whiteSpace=wrap;html=1;" parent="1" vertex="1">
          <mxGeometry x="270" y="700" width="120" height="60" as="geometry" />
        </mxCell>
        <mxCell id="Lrqft2dla-wK3kQ4HPoh-11" value="end game with how many he got right" style="whiteSpace=wrap;html=1;" parent="1" vertex="1">
          <mxGeometry x="105" y="795" width="120" height="60" as="geometry" />
        </mxCell>
        <mxCell id="Lrqft2dla-wK3kQ4HPoh-12" value="Loop f" style="whiteSpace=wrap;html=1;" parent="1" vertex="1">
          <mxGeometry x="105" y="410" width="120" height="60" as="geometry" />
        </mxCell>
      </root>
    </mxGraphModel>
  </diagram>
</mxfile>
